<svg width="88" height="76" viewBox="0 0 88 76" fill="none" xmlns="http://www.w3.org/2000/svg">
<path d="M64.84 27.92L47.32 1.68C46.56 0.56 45.28 0 44 0C42.72 0 41.44 0.56 40.68 1.72L23.16 27.92H4C1.8 27.92 0 29.72 0 31.92C0 32.28 0.0399999 32.64 0.16 33L10.32 70.08C11.24 73.44 14.32 75.92 18 75.92H70C73.68 75.92 76.76 73.44 77.72 70.08L87.88 33L88 31.92C88 29.72 86.2 27.92 84 27.92H64.84ZM32 27.92L44 10.32L56 27.92H32ZM44 59.92C39.6 59.92 36 56.32 36 51.92C36 47.52 39.6 43.92 44 43.92C48.4 43.92 52 47.52 52 51.92C52 56.32 48.4 59.92 44 59.92Z" fill="black"/>
</svg>
