<svg width="80" height="80" viewBox="0 0 80 80" fill="none" xmlns="http://www.w3.org/2000/svg">
<path d="M24 64C19.6 64 16.04 67.6 16.04 72C16.04 76.4 19.6 80 24 80C28.4 80 32 76.4 32 72C32 67.6 28.4 64 24 64ZM64 64C59.6 64 56.04 67.6 56.04 72C56.04 76.4 59.6 80 64 80C68.4 80 72 76.4 72 72C72 67.6 68.4 64 64 64ZM28.4 44H58.2C61.2 44 63.84 42.36 65.2 39.88L80 11.84L73 8L58.2 36H30.12L13.08 0H0V8H8L22.4 38.36L17 48.12C14.08 53.48 17.92 60 24 60H72V52H24L28.4 44ZM44 0L60 16L44 32L38.36 26.36L44.68 20H28V12H44.68L38.32 5.64L44 0Z" fill="black"/>
</svg>
