<svg width="55" height="55" viewBox="0 0 55 55" fill="none" xmlns="http://www.w3.org/2000/svg">
<g clip-path="url(#clip0_2_37)">
<path d="M10.3125 27.5C13.4766 27.5 16.0417 24.935 16.0417 21.7708C16.0417 18.6067 13.4766 16.0417 10.3125 16.0417C7.14836 16.0417 4.58333 18.6067 4.58333 21.7708C4.58333 24.935 7.14836 27.5 10.3125 27.5Z" fill="black"/>
<path d="M20.625 18.3333C23.7891 18.3333 26.3542 15.7683 26.3542 12.6042C26.3542 9.44004 23.7891 6.875 20.625 6.875C17.4609 6.875 14.8958 9.44004 14.8958 12.6042C14.8958 15.7683 17.4609 18.3333 20.625 18.3333Z" fill="black"/>
<path d="M34.375 18.3333C37.5391 18.3333 40.1042 15.7683 40.1042 12.6042C40.1042 9.44004 37.5391 6.875 34.375 6.875C31.2109 6.875 28.6458 9.44004 28.6458 12.6042C28.6458 15.7683 31.2109 18.3333 34.375 18.3333Z" fill="black"/>
<path d="M44.6875 27.5C47.8516 27.5 50.4167 24.935 50.4167 21.7708C50.4167 18.6067 47.8516 16.0417 44.6875 16.0417C41.5234 16.0417 38.9583 18.6067 38.9583 21.7708C38.9583 24.935 41.5234 27.5 44.6875 27.5Z" fill="black"/>
<path d="M39.7375 34.0542C37.7438 31.7167 36.0708 29.7229 34.0542 27.3854C33 26.1479 31.6479 24.9104 30.0438 24.3604C29.7917 24.2688 29.5396 24.2 29.2875 24.1542C28.7146 24.0625 28.0958 24.0625 27.5 24.0625C26.9042 24.0625 26.2854 24.0625 25.6896 24.1771C25.4375 24.2229 25.1854 24.2917 24.9333 24.3833C23.3292 24.9333 22 26.1708 20.9229 27.4083C18.9292 29.7458 17.2563 31.7396 15.2396 34.0771C12.2375 37.0792 8.54792 40.4021 9.23542 45.0542C9.9 47.3917 11.5729 49.7062 14.575 50.3708C16.2479 50.7146 21.5875 49.3625 27.2708 49.3625H27.6833C33.3667 49.3625 38.7063 50.6917 40.3792 50.3708C43.3813 49.7062 45.0542 47.3687 45.7188 45.0542C46.4292 40.3792 42.7396 37.0562 39.7375 34.0542Z" fill="black"/>
</g>
<defs>
<clipPath id="clip0_2_37">
<rect width="55" height="55" fill="white"/>
</clipPath>
</defs>
</svg>
