<svg width="45" height="50" viewBox="0 0 45 50" fill="none" xmlns="http://www.w3.org/2000/svg">
<path d="M2.5 10.0007H42.5M32.5 10.0007L31.8235 7.97088C31.1677 6.00383 30.8398 5.02031 30.2318 4.29316C29.6948 3.65103 29.0052 3.15401 28.2262 2.84766C27.344 2.50071 26.3075 2.50071 24.234 2.50071H20.766C18.6925 2.50071 17.656 2.50071 16.7738 2.84766C15.9948 3.15401 15.3052 3.65103 14.7682 4.29316C14.1601 5.02031 13.8323 6.00383 13.1766 7.97088L12.5 10.0007M37.5 10.0007V35.5007C37.5 39.7012 37.5 41.8012 36.6825 43.4057C35.9635 44.817 34.8162 45.9642 33.405 46.6832C31.8005 47.5007 29.7005 47.5007 25.5 47.5007H19.5C15.2996 47.5007 13.1994 47.5007 11.5951 46.6832C10.1839 45.9642 9.0365 44.817 8.31745 43.4057C7.5 41.8012 7.5 39.7012 7.5 35.5007V10.0007M27.5 20.0007V37.5007M17.5 20.0007V37.5007" stroke="black" stroke-width="5" stroke-linecap="round" stroke-linejoin="round"/>
</svg>
