<svg width="35" height="39" viewBox="0 0 35 39" fill="none" xmlns="http://www.w3.org/2000/svg">
<path d="M3.57599 36.153C2.59259 36.153 1.75045 35.7993 1.04955 35.0919C0.349851 34.3833 0 33.5319 0 32.5377V7.23059C0 6.23638 0.349851 5.38498 1.04955 4.67638C1.75045 3.96899 2.59259 3.6153 3.57599 3.6153H11.0409C11.3687 2.56083 12.0094 1.69437 12.963 1.0159C13.9166 0.338633 14.9596 0 16.092 0C17.284 0 18.3496 0.338633 19.2889 1.0159C20.227 1.69437 20.8599 2.56083 21.1877 3.6153H28.6079C29.5913 3.6153 30.4335 3.96899 31.1344 4.67638C31.8341 5.38498 32.1839 6.23638 32.1839 7.23059V16.2688H28.6079V7.23059H25.0319V9.03824C25.0319 10.0324 24.6821 10.8832 23.9824 11.5906C23.2815 12.2992 22.4393 12.6535 21.4559 12.6535H10.728C9.74457 12.6535 8.90302 12.2992 8.20332 11.5906C7.50243 10.8832 7.15198 10.0324 7.15198 9.03824V7.23059H3.57599V32.5377H12.516V36.153H3.57599ZM32.0051 38.5029L28.4291 34.8876C27.8033 35.2491 27.1328 35.5504 26.4176 35.7914C25.7024 36.0324 24.9425 36.153 24.1379 36.153C21.9029 36.153 20.0029 35.3624 18.4378 33.7813C16.8739 32.199 16.092 30.2781 16.092 28.0185C16.092 25.759 16.8739 23.8381 18.4378 22.2558C20.0029 20.6747 21.9029 19.8841 24.1379 19.8841C26.3729 19.8841 28.273 20.6747 29.8381 22.2558C31.402 23.8381 32.1839 25.759 32.1839 28.0185C32.1839 28.832 32.0647 29.6002 31.8263 30.3233C31.5879 31.0463 31.2899 31.7242 30.9323 32.3569L34.5083 35.9722C34.8361 36.3036 35 36.7254 35 37.2375C35 37.7497 34.8361 38.1715 34.5083 38.5029C34.1805 38.8343 33.7633 39 33.2567 39C32.7501 39 32.3329 38.8343 32.0051 38.5029ZM24.1379 32.5377C25.3895 32.5377 26.4474 32.1008 27.3116 31.2271C28.1758 30.3534 28.6079 29.2839 28.6079 28.0185C28.6079 26.7532 28.1758 25.6837 27.3116 24.81C26.4474 23.9363 25.3895 23.4994 24.1379 23.4994C22.8863 23.4994 21.8284 23.9363 20.9642 24.81C20.1 25.6837 19.6679 26.7532 19.6679 28.0185C19.6679 29.2839 20.1 30.3534 20.9642 31.2271C21.8284 32.1008 22.8863 32.5377 24.1379 32.5377ZM16.092 7.23059C16.5986 7.23059 17.0235 7.05706 17.3668 6.70999C17.7089 6.36412 17.8799 5.93511 17.8799 5.42294C17.8799 4.91078 17.7089 4.48116 17.3668 4.13409C17.0235 3.78823 16.5986 3.6153 16.092 3.6153C15.5854 3.6153 15.161 3.78823 14.8189 4.13409C14.4756 4.48116 14.304 4.91078 14.304 5.42294C14.304 5.93511 14.4756 6.36412 14.8189 6.70999C15.161 7.05706 15.5854 7.23059 16.092 7.23059Z" fill="black"/>
</svg>
